<?xml version="1.0" standalone="no"?>
<!DOCTYPE svg PUBLIC "-//W3C//DTD SVG 20010904//EN"
 "http://www.w3.org/TR/2001/REC-SVG-20010904/DTD/svg10.dtd">
<svg version="1.0" xmlns="http://www.w3.org/2000/svg"
 width="600.000000pt" height="600.000000pt" viewBox="0 0 600.000000 600.000000"
 preserveAspectRatio="xMidYMid meet">

<g transform="translate(0.000000,600.000000) scale(0.100000,-0.100000)"
fill="#000000" stroke="none">
<path d="M1570 5845 c-46 -147 -129 -265 -224 -320 -23 -13 -77 -30 -120 -39
-92 -19 -219 -82 -276 -137 -21 -20 -54 -66 -74 -102 -36 -64 -37 -67 -30
-140 6 -69 5 -78 -25 -140 -38 -80 -131 -207 -192 -263 -38 -35 -45 -47 -46
-80 0 -21 -4 -67 -8 -101 -6 -49 -4 -73 9 -106 18 -47 66 -102 66 -76 1 33 18
43 72 40 81 -3 101 8 116 64 18 67 94 140 202 194 129 63 234 75 313 35 26
-14 27 -14 27 12 0 16 5 24 12 22 21 -7 87 -149 99 -211 21 -117 -47 -257
-196 -404 -135 -132 -362 -269 -558 -338 -62 -22 -85 -37 -115 -70 -90 -103
-155 -258 -174 -416 -20 -158 18 -384 87 -526 49 -98 100 -147 230 -217 189
-102 285 -171 316 -228 28 -51 29 -117 3 -266 -37 -216 -68 -355 -80 -359 -6
-2 -17 77 -29 224 -30 371 -30 361 -5 396 12 16 18 32 13 36 -5 3 -30 21 -56
39 -45 32 -89 51 -151 66 l-29 7 33 -33 c40 -39 83 -129 106 -217 13 -52 15
-102 12 -255 -2 -106 -8 -199 -14 -209 -9 -16 -12 -16 -34 8 -28 29 -47 31
-95 8 l-36 -17 -23 28 c-27 35 -55 30 -91 -18 -21 -28 -75 -146 -75 -165 0 -2
10 5 23 16 26 24 67 46 73 40 3 -2 -4 -24 -15 -49 -22 -51 -37 -128 -24 -128
4 0 17 19 27 42 30 64 73 108 107 108 34 0 33 2 14 -43 -27 -65 -19 -76 23
-31 43 48 92 76 111 64 10 -6 9 -12 -7 -28 -22 -22 -42 -80 -42 -124 0 -27 0
-27 45 17 24 25 49 45 54 45 5 0 7 -18 4 -39 -3 -22 -2 -57 2 -77 l7 -38 31
58 c17 31 44 66 60 78 38 27 104 29 122 4 25 -33 38 -8 32 58 -5 53 -1 73 30
156 74 198 235 479 347 605 l44 50 101 -107 c56 -58 133 -130 171 -158 81 -60
90 -73 90 -130 0 -31 -6 -47 -26 -65 -30 -27 -122 -65 -159 -65 -28 0 -33 -15
-9 -24 36 -14 128 -4 225 24 57 16 145 35 194 42 50 6 83 14 75 16 -52 18
-214 132 -329 232 -118 103 -283 316 -361 468 -18 34 -35 62 -39 62 -3 0 -24
-5 -46 -10 -92 -21 -205 40 -258 140 l-29 55 4 -76 c4 -58 11 -87 33 -127 49
-91 136 -162 237 -196 15 -4 9 -17 -37 -81 -96 -134 -192 -351 -269 -610 -50
-163 -45 -157 -67 -107 -10 24 -27 46 -37 49 -17 4 -11 25 60 220 80 218 138
419 138 476 0 38 -39 125 -66 149 -23 21 -87 48 -110 48 -15 0 -15 -3 4 -23
24 -26 27 -48 12 -78 -20 -37 -73 -19 -170 57 -88 69 -125 102 -120 106 3 2
31 12 62 21 137 42 213 135 206 253 -4 72 -39 133 -90 160 -41 21 -111 22
-158 2 l-35 -15 40 -11 c41 -12 82 -47 104 -89 28 -54 2 -122 -59 -153 -53
-27 -86 -25 -151 8 -65 33 -118 98 -154 192 -24 62 -56 191 -49 199 2 2 17 -8
34 -22 57 -48 186 -46 267 4 47 30 78 96 69 152 -14 84 -60 127 -137 127 l-40
0 36 -35 c28 -28 35 -43 35 -74 0 -77 -81 -128 -154 -97 -42 18 -56 42 -56 98
0 90 61 169 191 246 44 26 53 27 45 5 -10 -26 13 -81 42 -102 66 -46 149 -34
206 29 40 45 47 85 20 125 -17 26 -37 34 -28 12 7 -19 -11 -62 -36 -87 -24
-24 -82 -27 -104 -4 -20 20 -20 63 0 92 8 12 82 67 163 122 244 164 367 283
426 411 67 148 55 303 -40 501 l-23 47 57 33 c62 36 101 96 101 154 l0 31 103
6 c142 8 247 50 294 117 15 21 15 22 -13 7 -83 -42 -366 -58 -429 -24 -97 53
-165 63 -222 33 -53 -27 -66 -95 -28 -148 12 -18 14 -17 25 16 13 41 35 56 79
56 62 0 89 -61 54 -120 -23 -40 -73 -65 -189 -93 -162 -40 -310 -124 -424
-242 -60 -62 -96 -85 -133 -85 -33 0 -47 18 -47 61 0 49 39 96 86 105 23 4 34
12 34 23 0 49 118 172 244 254 l49 32 -39 6 c-43 7 -84 47 -84 83 0 38 37 133
71 182 17 25 52 59 78 75 61 39 184 78 296 92 l90 12 32 60 c58 108 86 209 86
310 1 130 -13 146 -43 50z"/>
<path d="M1250 5783 c0 -57 -56 -161 -139 -259 l-69 -82 56 29 c32 16 74 32
96 35 34 6 41 13 60 53 17 37 21 65 20 144 0 61 -5 102 -12 109 -9 9 -12 3
-12 -29z"/>
<path d="M1771 5540 c-1 -25 -59 -88 -104 -114 -52 -30 -94 -41 -227 -60 -260
-37 -387 -117 -398 -250 -4 -48 -1 -56 27 -87 l30 -34 1 51 c0 64 27 106 94
152 123 82 276 80 326 -6 l21 -35 77 6 c42 2 102 13 132 23 60 20 171 91 178
114 4 12 2 13 -9 3 -32 -26 -139 -53 -211 -53 -76 0 -118 7 -118 19 0 4 23 18
51 31 98 46 168 161 140 230 -5 14 -10 18 -10 10z"/>
<path d="M1630 4905 c0 -15 -7 -40 -16 -57 -15 -30 -15 -32 2 -46 54 -40 101
-56 165 -57 58 0 70 4 105 30 l39 30 -65 7 c-90 10 -143 32 -184 79 -20 21
-38 39 -41 39 -3 0 -5 -11 -5 -25z"/>
<path d="M2255 4795 c-131 -24 -225 -68 -278 -129 -62 -72 -84 -188 -49 -256
45 -86 202 -107 261 -36 24 29 31 88 14 123 -8 18 -20 33 -25 33 -5 0 -7 -4
-3 -10 3 -5 -1 -24 -8 -43 -39 -92 -167 -55 -167 49 0 41 73 108 139 128 75
22 195 21 247 -3 136 -62 234 -326 193 -523 -24 -114 -121 -274 -212 -347 -97
-78 -196 -103 -422 -106 -207 -2 -263 -17 -347 -93 -46 -41 -78 -102 -77 -147
0 -34 27 -102 28 -72 3 59 74 121 179 156 34 12 136 30 227 41 91 10 192 25
224 31 68 14 80 11 165 -46 114 -75 364 -325 461 -460 34 -48 155 -259 155
-271 0 -2 -21 11 -46 28 -56 38 -119 57 -197 60 -59 3 -59 3 -102 -44 -23 -26
-53 -73 -65 -105 -13 -32 -26 -62 -30 -66 -4 -4 -32 31 -64 79 -110 165 -265
304 -411 369 -113 50 -199 67 -360 72 -183 6 -178 9 -183 -116 -8 -196 80
-424 253 -656 83 -111 303 -328 410 -403 109 -77 283 -164 385 -192 165 -45
336 -45 461 -1 l54 20 -76 0 c-299 3 -674 184 -945 455 -177 178 -305 385
-378 611 -36 111 -37 127 -6 136 115 33 293 -21 450 -137 153 -112 345 -345
390 -473 30 -84 93 -189 157 -261 l41 -45 -33 98 c-18 55 -39 137 -45 183 -12
80 -7 194 8 194 4 0 20 -42 37 -93 61 -189 241 -393 453 -515 104 -60 159 -78
419 -137 562 -126 928 -258 1068 -387 193 -176 206 -393 32 -554 -176 -164
-511 -226 -965 -179 -302 31 -578 85 -1252 245 -658 156 -866 197 -1055 207
-296 15 -595 -77 -751 -233 -94 -95 -132 -199 -113 -314 24 -149 96 -227 312
-336 163 -83 214 -122 258 -199 16 -27 29 -43 29 -34 0 22 58 73 117 103 95
47 195 68 478 101 158 18 212 33 292 82 66 41 180 139 148 128 -88 -32 -148
-39 -345 -39 -227 -1 -278 8 -399 67 -69 34 -176 125 -187 159 -5 17 -10 12
-33 -33 -37 -74 -95 -104 -201 -103 -85 1 -129 16 -183 64 -44 39 -47 29 -8
-31 35 -57 91 -103 140 -118 59 -17 155 -13 223 10 l61 20 24 -29 c31 -40 86
-60 204 -74 55 -6 96 -15 92 -19 -12 -11 -198 -46 -283 -54 -247 -21 -474 76
-557 239 -57 112 -38 227 53 325 103 112 237 160 465 168 237 9 427 -21 1164
-182 662 -144 940 -196 1235 -229 545 -62 866 2 1080 214 73 73 112 138 135
226 33 125 -22 289 -134 399 -23 21 -41 45 -41 53 0 22 63 8 142 -30 49 -25
64 -29 57 -17 -15 28 -79 76 -149 113 -61 32 -448 164 -590 202 -81 21 -122
42 -117 57 8 25 119 50 225 51 108 0 112 6 18 33 -36 10 -139 17 -351 23 -216
5 -322 12 -380 24 -89 19 -188 62 -182 79 2 7 33 15 69 19 66 6 149 36 162 57
5 8 -15 11 -66 11 -301 0 -529 97 -677 288 -67 85 -111 168 -118 224 -7 45 12
95 38 103 28 9 89 -11 144 -49 98 -66 375 -338 375 -368 0 -4 4 -8 10 -8 5 0
-2 30 -16 68 -82 212 -87 231 -88 347 -2 219 56 331 201 385 208 78 548 -86
760 -368 68 -91 231 -358 277 -456 60 -126 104 -287 107 -388 l1 -43 13 50 c7
28 14 91 14 141 2 198 -89 432 -310 800 -95 156 -100 187 -44 240 49 46 112
58 276 51 157 -6 239 -26 375 -92 123 -60 229 -141 354 -272 138 -144 225
-267 311 -438 38 -77 67 -126 63 -110 -72 336 -218 651 -495 1066 -244 366
-530 631 -997 923 -483 303 -923 481 -1333 541 -128 18 -366 18 -464 0z m500
-131 c316 -43 678 -168 991 -343 516 -288 820 -524 1053 -816 168 -212 394
-521 468 -642 73 -120 87 -158 31 -87 -17 21 -70 77 -118 124 -213 210 -425
330 -647 366 -116 19 -255 14 -326 -11 -60 -21 -115 -72 -123 -114 -4 -17 -10
-31 -13 -31 -4 0 -30 32 -57 72 -69 102 -224 294 -336 418 -157 173 -449 421
-784 665 -82 59 -163 119 -181 132 -19 14 -46 53 -71 105 -22 46 -59 104 -81
130 -23 25 -41 49 -41 53 0 7 79 0 235 -21z m187 -525 c462 -389 722 -641 924
-893 101 -126 224 -297 224 -311 0 -4 -33 24 -74 62 -161 154 -363 254 -558
277 -205 25 -343 -110 -398 -389 l-18 -90 -20 47 c-106 240 -372 557 -605 722
-53 37 -97 69 -97 71 0 2 26 18 58 35 191 108 330 364 320 593 -2 42 0 76 4
75 4 -2 112 -91 240 -199z"/>
<path d="M2696 4604 c-42 -42 -6 -126 87 -201 102 -81 106 -83 64 -33 -89 106
-64 189 54 175 109 -13 345 -107 639 -256 514 -259 815 -462 1075 -724 149
-150 225 -217 225 -197 0 17 -270 291 -397 402 -278 244 -631 484 -898 611
-225 107 -388 161 -637 214 -137 29 -190 31 -212 9z"/>
<path d="M2772 4118 c-7 -7 -12 -26 -12 -42 -1 -45 -40 -154 -80 -220 -51 -84
-128 -160 -198 -195 -34 -17 -62 -35 -62 -39 0 -7 25 -28 102 -86 l37 -28 -22
41 c-27 49 -21 62 48 108 99 66 139 118 195 253 17 41 38 82 47 92 45 50 112
3 373 -262 120 -122 259 -253 315 -296 101 -78 275 -198 275 -190 0 5 -500
482 -616 587 -39 35 -113 103 -166 151 -52 47 -112 98 -133 112 -40 28 -83 34
-103 14z"/>
<path d="M1791 4694 c29 -71 7 -279 -46 -434 -55 -161 -124 -258 -306 -427
-159 -147 -197 -199 -213 -286 -18 -100 57 -214 168 -256 64 -24 155 -27 201
-7 l30 13 -55 8 c-74 10 -139 32 -177 61 -39 30 -68 101 -60 150 8 47 11 49
39 30 34 -24 88 -20 136 11 23 15 42 30 42 33 0 3 -26 4 -58 2 -47 -3 -61 0
-76 17 -38 42 12 130 121 210 l66 49 21 -31 c42 -62 122 -95 165 -68 12 8 9
11 -12 16 -15 4 -38 21 -52 37 -43 50 -32 135 28 223 l24 36 21 -35 c25 -42
81 -64 125 -47 29 11 37 31 11 31 -8 0 -29 13 -45 29 l-28 29 0 218 c0 263
-16 362 -65 403 -15 13 -16 12 -5 -15z"/>
<path d="M2193 3539 c-21 -10 -72 -18 -146 -23 -208 -12 -342 -45 -402 -97
-60 -53 -45 -69 63 -69 63 0 65 1 44 16 -31 21 -28 52 6 65 98 38 287 49 407
24 176 -37 387 -191 604 -440 l53 -60 -51 77 c-131 198 -289 354 -501 494 -44
29 -46 30 -77 13z"/>
<path d="M1438 1787 c-61 -54 -73 -100 -41 -160 l17 -32 7 34 c7 33 34 70 44
59 3 -3 1 -18 -5 -33 -19 -51 10 -103 84 -151 l29 -18 -17 32 c-25 49 -21 97
11 122 40 32 54 23 58 -37 4 -55 18 -90 44 -111 25 -20 63 -39 94 -46 l28 -7
-26 40 c-34 51 -32 105 6 134 37 27 77 16 139 -40 l50 -45 0 31 c0 45 58 105
128 133 53 21 72 23 252 23 168 0 207 -4 283 -23 116 -29 229 -74 296 -118
l53 -36 -18 32 c-84 144 -423 256 -718 236 -170 -11 -281 -46 -325 -102 -24
-30 -22 -31 -45 13 -32 63 -103 78 -165 33 l-28 -19 -24 37 c-29 45 -62 52
-94 22 l-23 -21 -6 25 c-9 36 -42 33 -88 -7z"/>
<path d="M3040 1714 c120 -45 403 -121 605 -164 110 -22 243 -50 295 -61 308
-66 487 -147 536 -242 25 -47 20 -119 -12 -177 -33 -61 -78 -96 -158 -126 -70
-26 -51 -30 48 -9 128 27 204 77 242 160 63 134 -9 271 -189 361 -173 88 -308
121 -750 184 -194 28 -421 62 -505 75 -84 14 -158 25 -165 24 -7 0 17 -11 53
-25z"/>
</g>
</svg>
